<svg width="216" height="42" viewBox="0 0 216 42" fill="none" xmlns="http://www.w3.org/2000/svg">
<path d="M64.5405 32.168C62.5725 32.168 60.9565 31.704 59.6925 30.776C58.4285 29.832 57.7485 28.488 57.6525 26.744H62.6685C62.7165 27.336 62.8925 27.768 63.1965 28.04C63.5005 28.312 63.8925 28.448 64.3725 28.448C64.8045 28.448 65.1565 28.344 65.4285 28.136C65.7165 27.912 65.8605 27.608 65.8605 27.224C65.8605 26.728 65.6285 26.344 65.1645 26.072C64.7005 25.8 63.9485 25.496 62.9085 25.16C61.8045 24.792 60.9085 24.44 60.2205 24.104C59.5485 23.752 58.9565 23.248 58.4445 22.592C57.9485 21.92 57.7005 21.048 57.7005 19.976C57.7005 18.888 57.9725 17.96 58.5165 17.192C59.0605 16.408 59.8125 15.816 60.7725 15.416C61.7325 15.016 62.8205 14.816 64.0365 14.816C66.0045 14.816 67.5725 15.28 68.7405 16.208C69.9245 17.12 70.5565 18.408 70.6365 20.072H65.5245C65.5085 19.56 65.3485 19.176 65.0445 18.92C64.7565 18.664 64.3805 18.536 63.9165 18.536C63.5645 18.536 63.2765 18.64 63.0525 18.848C62.8285 19.056 62.7165 19.352 62.7165 19.736C62.7165 20.056 62.8365 20.336 63.0765 20.576C63.3325 20.8 63.6445 21 64.0125 21.176C64.3805 21.336 64.9245 21.544 65.6445 21.8C66.7165 22.168 67.5965 22.536 68.2845 22.904C68.9885 23.256 69.5885 23.76 70.0845 24.416C70.5965 25.056 70.8525 25.872 70.8525 26.864C70.8525 27.872 70.5965 28.776 70.0845 29.576C69.5885 30.376 68.8605 31.008 67.9005 31.472C66.9565 31.936 65.8365 32.168 64.5405 32.168ZM85.9033 25.112C85.9033 25.48 85.8793 25.848 85.8313 26.216H76.9273C76.9753 26.952 77.1753 27.504 77.5273 27.872C77.8953 28.224 78.3593 28.4 78.9193 28.4C79.7033 28.4 80.2633 28.048 80.5993 27.344H85.6153C85.4073 28.272 84.9993 29.104 84.3913 29.84C83.7993 30.56 83.0473 31.128 82.1353 31.544C81.2233 31.96 80.2153 32.168 79.1113 32.168C77.7833 32.168 76.5993 31.888 75.5593 31.328C74.5353 30.768 73.7273 29.968 73.1353 28.928C72.5593 27.888 72.2713 26.664 72.2713 25.256C72.2713 23.848 72.5593 22.632 73.1353 21.608C73.7113 20.568 74.5113 19.768 75.5353 19.208C76.5753 18.648 77.7673 18.368 79.1113 18.368C80.4393 18.368 81.6153 18.64 82.6393 19.184C83.6633 19.728 84.4633 20.512 85.0393 21.536C85.6153 22.544 85.9033 23.736 85.9033 25.112ZM81.1033 23.936C81.1033 23.36 80.9113 22.912 80.5273 22.592C80.1433 22.256 79.6633 22.088 79.0873 22.088C78.5113 22.088 78.0393 22.248 77.6713 22.568C77.3033 22.872 77.0633 23.328 76.9513 23.936H81.1033ZM96.6364 18.416C98.1884 18.416 99.4204 18.936 100.332 19.976C101.244 21 101.7 22.392 101.7 24.152V32H96.9964V24.776C96.9964 24.008 96.7964 23.408 96.3964 22.976C95.9964 22.528 95.4604 22.304 94.7884 22.304C94.0844 22.304 93.5324 22.528 93.1324 22.976C92.7324 23.408 92.5324 24.008 92.5324 24.776V32H87.8284V18.536H92.5324V20.456C92.9484 19.848 93.5084 19.36 94.2124 18.992C94.9164 18.608 95.7244 18.416 96.6364 18.416ZM115.754 15.08V18.824H108.986V21.8H113.978V25.376H108.986V32H104.282V15.08H115.754ZM120.111 17.288C119.279 17.288 118.607 17.064 118.095 16.616C117.599 16.152 117.351 15.576 117.351 14.888C117.351 14.184 117.599 13.6 118.095 13.136C118.607 12.672 119.279 12.44 120.111 12.44C120.927 12.44 121.583 12.672 122.079 13.136C122.591 13.6 122.847 14.184 122.847 14.888C122.847 15.576 122.591 16.152 122.079 16.616C121.583 17.064 120.927 17.288 120.111 17.288ZM122.439 18.536V32H117.735V18.536H122.439ZM133.925 18.416C135.477 18.416 136.709 18.936 137.621 19.976C138.533 21 138.989 22.392 138.989 24.152V32H134.285V24.776C134.285 24.008 134.085 23.408 133.685 22.976C133.285 22.528 132.749 22.304 132.077 22.304C131.373 22.304 130.821 22.528 130.421 22.976C130.021 23.408 129.821 24.008 129.821 24.776V32H125.117V18.536H129.821V20.456C130.237 19.848 130.797 19.36 131.501 18.992C132.205 18.608 133.013 18.416 133.925 18.416ZM140.803 25.256C140.803 23.864 141.051 22.648 141.547 21.608C142.059 20.568 142.747 19.768 143.611 19.208C144.491 18.648 145.467 18.368 146.539 18.368C147.467 18.368 148.267 18.552 148.939 18.92C149.611 19.288 150.131 19.784 150.499 20.408V18.536H155.203V32H150.499V30.128C150.131 30.752 149.603 31.248 148.915 31.616C148.243 31.984 147.451 32.168 146.539 32.168C145.467 32.168 144.491 31.888 143.611 31.328C142.747 30.768 142.059 29.968 141.547 28.928C141.051 27.872 140.803 26.648 140.803 25.256ZM150.499 25.256C150.499 24.392 150.259 23.712 149.779 23.216C149.315 22.72 148.739 22.472 148.051 22.472C147.347 22.472 146.763 22.72 146.299 23.216C145.835 23.696 145.603 24.376 145.603 25.256C145.603 26.12 145.835 26.808 146.299 27.32C146.763 27.816 147.347 28.064 148.051 28.064C148.739 28.064 149.315 27.816 149.779 27.32C150.259 26.824 150.499 26.136 150.499 25.256ZM166.691 18.416C168.243 18.416 169.475 18.936 170.387 19.976C171.299 21 171.755 22.392 171.755 24.152V32H167.051V24.776C167.051 24.008 166.851 23.408 166.451 22.976C166.051 22.528 165.515 22.304 164.843 22.304C164.139 22.304 163.587 22.528 163.187 22.976C162.787 23.408 162.587 24.008 162.587 24.776V32H157.883V18.536H162.587V20.456C163.003 19.848 163.563 19.36 164.267 18.992C164.971 18.608 165.779 18.416 166.691 18.416ZM173.568 25.256C173.568 23.864 173.856 22.648 174.432 21.608C175.008 20.568 175.808 19.768 176.832 19.208C177.872 18.648 179.056 18.368 180.384 18.368C182.096 18.368 183.536 18.84 184.704 19.784C185.872 20.712 186.624 22.016 186.96 23.696H181.968C181.68 22.816 181.12 22.376 180.288 22.376C179.696 22.376 179.224 22.624 178.872 23.12C178.536 23.6 178.368 24.312 178.368 25.256C178.368 26.2 178.536 26.92 178.872 27.416C179.224 27.912 179.696 28.16 180.288 28.16C181.136 28.16 181.696 27.72 181.968 26.84H186.96C186.624 28.504 185.872 29.808 184.704 30.752C183.536 31.696 182.096 32.168 180.384 32.168C179.056 32.168 177.872 31.888 176.832 31.328C175.808 30.768 175.008 29.968 174.432 28.928C173.856 27.888 173.568 26.664 173.568 25.256ZM201.778 25.112C201.778 25.48 201.754 25.848 201.706 26.216H192.802C192.85 26.952 193.05 27.504 193.402 27.872C193.77 28.224 194.234 28.4 194.794 28.4C195.578 28.4 196.138 28.048 196.474 27.344H201.49C201.282 28.272 200.874 29.104 200.266 29.84C199.674 30.56 198.922 31.128 198.01 31.544C197.098 31.96 196.09 32.168 194.986 32.168C193.658 32.168 192.474 31.888 191.434 31.328C190.41 30.768 189.602 29.968 189.01 28.928C188.434 27.888 188.146 26.664 188.146 25.256C188.146 23.848 188.434 22.632 189.01 21.608C189.586 20.568 190.386 19.768 191.41 19.208C192.45 18.648 193.642 18.368 194.986 18.368C196.314 18.368 197.49 18.64 198.514 19.184C199.538 19.728 200.338 20.512 200.914 21.536C201.49 22.544 201.778 23.736 201.778 25.112ZM196.978 23.936C196.978 23.36 196.786 22.912 196.402 22.592C196.018 22.256 195.538 22.088 194.962 22.088C194.386 22.088 193.914 22.248 193.546 22.568C193.178 22.872 192.938 23.328 192.826 23.936H196.978ZM209.439 32.168C208.223 32.168 207.135 31.968 206.175 31.568C205.231 31.152 204.479 30.592 203.919 29.888C203.375 29.168 203.071 28.36 203.007 27.464H207.567C207.631 27.896 207.831 28.232 208.167 28.472C208.503 28.712 208.919 28.832 209.415 28.832C209.799 28.832 210.103 28.752 210.327 28.592C210.551 28.432 210.663 28.224 210.663 27.968C210.663 27.632 210.479 27.384 210.111 27.224C209.743 27.064 209.135 26.888 208.287 26.696C207.327 26.504 206.527 26.288 205.887 26.048C205.247 25.808 204.687 25.416 204.207 24.872C203.743 24.328 203.511 23.592 203.511 22.664C203.511 21.864 203.727 21.144 204.159 20.504C204.591 19.848 205.223 19.328 206.055 18.944C206.903 18.56 207.919 18.368 209.103 18.368C210.863 18.368 212.247 18.8 213.255 19.664C214.263 20.528 214.847 21.664 215.007 23.072H210.759C210.679 22.64 210.487 22.312 210.183 22.088C209.895 21.848 209.503 21.728 209.007 21.728C208.623 21.728 208.327 21.8 208.119 21.944C207.927 22.088 207.831 22.288 207.831 22.544C207.831 22.864 208.015 23.112 208.383 23.288C208.751 23.448 209.343 23.616 210.159 23.792C211.135 24 211.943 24.232 212.583 24.488C213.239 24.744 213.807 25.16 214.287 25.736C214.783 26.296 215.031 27.064 215.031 28.04C215.031 28.824 214.799 29.528 214.335 30.152C213.887 30.776 213.239 31.272 212.391 31.64C211.559 31.992 210.575 32.168 209.439 32.168Z" fill="white"/>
<path d="M59.6925 30.776L59.0941 31.5772L59.1007 31.5821L59.6925 30.776ZM57.6525 26.744V25.744H56.5959L56.654 26.799L57.6525 26.744ZM62.6685 26.744L63.6652 26.6632L63.5907 25.744H62.6685V26.744ZM63.1965 28.04L62.5297 28.7852L62.5297 28.7852L63.1965 28.04ZM65.4285 28.136L66.036 28.9304L66.0424 28.9254L65.4285 28.136ZM65.1645 26.072L65.6702 25.2093L65.6702 25.2093L65.1645 26.072ZM62.9085 25.16L62.5923 26.1087L62.6011 26.1116L62.9085 25.16ZM60.2205 24.104L59.7565 24.9898L59.769 24.9964L59.7817 25.0026L60.2205 24.104ZM58.4445 22.592L57.6399 23.1859L57.6479 23.1967L57.6562 23.2073L58.4445 22.592ZM58.5165 17.192L59.3326 17.77L59.3381 17.7621L58.5165 17.192ZM60.7725 15.416L60.3879 14.4929H60.3879L60.7725 15.416ZM68.7405 16.208L68.1184 16.991L68.1243 16.9956L68.1303 17.0002L68.7405 16.208ZM70.6365 20.072V21.072H71.6857L71.6353 20.024L70.6365 20.072ZM65.5245 20.072L64.525 20.1032L64.5553 21.072H65.5245V20.072ZM65.0445 18.92L64.3801 19.6674L64.3901 19.6763L64.4004 19.6849L65.0445 18.92ZM63.0525 18.848L63.733 19.5808H63.733L63.0525 18.848ZM63.0765 20.576L62.3694 21.2831L62.3929 21.3067L62.418 21.3286L63.0765 20.576ZM64.0125 21.176L63.581 22.0781L63.5973 22.0859L63.6138 22.0931L64.0125 21.176ZM65.6445 21.8L65.3095 22.7423L65.3198 22.7458L65.6445 21.8ZM68.2845 22.904L67.8128 23.7858L67.825 23.7923L67.8373 23.7984L68.2845 22.904ZM70.0845 24.416L69.2868 25.0191L69.2951 25.03L69.3036 25.0407L70.0845 24.416ZM70.0845 29.576L69.2422 29.0369L69.2384 29.043L69.2346 29.0491L70.0845 29.576ZM67.9005 31.472L67.4653 30.5716L67.4594 30.5746L67.9005 31.472ZM64.5405 31.168C62.7305 31.168 61.3372 30.7429 60.2843 29.9699L59.1007 31.5821C60.5758 32.6651 62.4145 33.168 64.5405 33.168V31.168ZM60.2909 29.9748C59.2915 29.2284 58.7327 28.1731 58.651 26.689L56.654 26.799C56.7643 28.8029 57.5655 30.4356 59.0941 31.5772L60.2909 29.9748ZM57.6525 27.744H62.6685V25.744H57.6525V27.744ZM61.6718 26.8248C61.7311 27.5568 61.9628 28.278 62.5297 28.7852L63.8633 27.2948C63.8222 27.258 63.7019 27.1152 63.6652 26.6632L61.6718 26.8248ZM62.5297 28.7852C63.0487 29.2496 63.6925 29.448 64.3725 29.448V27.448C64.0925 27.448 63.9523 27.3744 63.8633 27.2948L62.5297 28.7852ZM64.3725 29.448C64.9658 29.448 65.5483 29.3033 66.036 28.9304L64.8211 27.3416C64.7647 27.3847 64.6432 27.448 64.3725 27.448V29.448ZM66.0424 28.9254C66.5885 28.5006 66.8605 27.8978 66.8605 27.224H64.8605C64.8605 27.2889 64.849 27.3115 64.8488 27.3119C64.848 27.3135 64.8468 27.3157 64.8435 27.3198C64.84 27.324 64.8316 27.3334 64.8146 27.3466L66.0424 28.9254ZM66.8605 27.224C66.8605 26.3382 66.409 25.6424 65.6702 25.2093L64.6588 26.9347C64.7755 27.0031 64.8163 27.0575 64.8306 27.0811C64.8426 27.101 64.8605 27.1385 64.8605 27.224H66.8605ZM65.6702 25.2093C65.1079 24.8796 64.2695 24.5488 63.2159 24.2084L62.6011 26.1116C63.6275 26.4432 64.2932 26.7204 64.6588 26.9347L65.6702 25.2093ZM63.2247 24.2113C62.1435 23.8509 61.2929 23.5148 60.6593 23.2054L59.7817 25.0026C60.5241 25.3652 61.4655 25.7331 62.5923 26.1087L63.2247 24.2113ZM60.6845 23.2182C60.1504 22.9384 59.6658 22.5315 59.2328 21.9767L57.6562 23.2073C58.2472 23.9645 58.9466 24.5656 59.7565 24.9898L60.6845 23.2182ZM59.2491 21.9981C58.9119 21.5414 58.7005 20.8951 58.7005 19.976H56.7005C56.7005 21.2009 56.9851 22.2986 57.6399 23.1859L59.2491 21.9981ZM58.7005 19.976C58.7005 19.0617 58.9262 18.3437 59.3325 17.77L57.7005 16.614C57.0188 17.5763 56.7005 18.7143 56.7005 19.976H58.7005ZM59.3381 17.7621C59.7634 17.1491 60.357 16.6724 61.1571 16.3391L60.3879 14.4929C59.268 14.9596 58.3576 15.6669 57.6949 16.6219L59.3381 17.7621ZM61.1571 16.3391C61.9764 15.9977 62.9305 15.816 64.0365 15.816V13.816C62.7105 13.816 61.4886 14.0343 60.3879 14.4929L61.1571 16.3391ZM64.0365 15.816C65.851 15.816 67.1767 16.2427 68.1184 16.991L69.3626 15.425C67.9683 14.3173 66.158 13.816 64.0365 13.816V15.816ZM68.1303 17.0002C69.0534 17.7113 69.5699 18.7113 69.6377 20.12L71.6353 20.024C71.5431 18.1047 70.7956 16.5287 69.3507 15.4158L68.1303 17.0002ZM70.6365 19.072H65.5245V21.072H70.6365V19.072ZM66.524 20.0408C66.5019 19.3321 66.2688 18.6436 65.6886 18.1551L64.4004 19.6849C64.4282 19.7084 64.5151 19.7879 64.525 20.1032L66.524 20.0408ZM65.7089 18.1726C65.202 17.7221 64.5729 17.536 63.9165 17.536V19.536C64.1881 19.536 64.311 19.6059 64.3801 19.6674L65.7089 18.1726ZM63.9165 17.536C63.3531 17.536 62.809 17.7095 62.372 18.1152L63.733 19.5808C63.744 19.5705 63.7759 19.536 63.9165 19.536V17.536ZM62.372 18.1152C61.8946 18.5586 61.7165 19.15 61.7165 19.736H63.7165C63.7165 19.6399 63.7306 19.5935 63.7358 19.5799C63.7392 19.5709 63.738 19.5761 63.733 19.5808L62.372 18.1152ZM61.7165 19.736C61.7165 20.3386 61.9545 20.8682 62.3694 21.2831L63.7836 19.8689C63.7185 19.8038 63.7165 19.7734 63.7165 19.736H61.7165ZM62.418 21.3286C62.7545 21.623 63.1467 21.8704 63.581 22.0781L64.444 20.2739C64.1423 20.1296 63.9105 19.977 63.735 19.8234L62.418 21.3286ZM63.6138 22.0931C64.0137 22.267 64.5835 22.4841 65.3095 22.7422L65.9795 20.8578C65.2655 20.6039 64.7473 20.405 64.4112 20.2589L63.6138 22.0931ZM65.3198 22.7458C66.3617 23.1035 67.1879 23.4515 67.8128 23.7858L68.7562 22.0222C68.0051 21.6205 67.0713 21.2325 65.9692 20.8542L65.3198 22.7458ZM67.8373 23.7984C68.3974 24.0785 68.8794 24.4802 69.2868 25.0191L70.8822 23.8129C70.2976 23.0398 69.5796 22.4335 68.7317 22.0096L67.8373 23.7984ZM69.3036 25.0407C69.6457 25.4683 69.8525 26.0497 69.8525 26.864H71.8525C71.8525 25.6943 71.5473 24.6437 70.8654 23.7913L69.3036 25.0407ZM69.8525 26.864C69.8525 27.6932 69.6448 28.4079 69.2422 29.0369L70.9268 30.1151C71.5482 29.1441 71.8525 28.0508 71.8525 26.864H69.8525ZM69.2346 29.0491C68.8514 29.6671 68.2778 30.179 67.4653 30.5717L68.3357 32.3723C69.4432 31.837 70.3256 31.0849 70.9344 30.1029L69.2346 29.0491ZM67.4594 30.5746C66.6808 30.9572 65.7184 31.168 64.5405 31.168V33.168C65.9546 33.168 67.2322 32.9148 68.3416 32.3694L67.4594 30.5746ZM85.8313 26.216V27.216H86.7094L86.8229 26.3453L85.8313 26.216ZM76.9273 26.216V25.216H75.86L75.9294 26.2811L76.9273 26.216ZM77.5273 27.872L76.8047 28.5632L76.82 28.5793L76.8361 28.5946L77.5273 27.872ZM80.5993 27.344V26.344H79.9685L79.6968 26.9133L80.5993 27.344ZM85.6153 27.344L86.5911 27.5627L86.8643 26.344H85.6153V27.344ZM84.3913 29.84L83.6203 29.2031L83.6189 29.2049L84.3913 29.84ZM82.1353 31.544L82.5503 32.4538L82.1353 31.544ZM75.5593 31.328L75.0795 32.2054L75.0852 32.2085L75.5593 31.328ZM73.1353 28.928L72.2605 29.4125L72.2662 29.4227L73.1353 28.928ZM73.1353 21.608L74.0069 22.0983L74.0101 22.0925L73.1353 21.608ZM75.5353 19.208L75.0612 18.3275L75.0555 18.3306L75.5353 19.208ZM82.6393 19.184L83.1085 18.3009L82.6393 19.184ZM85.0393 21.536L84.1677 22.0263L84.1711 22.0321L85.0393 21.536ZM81.1033 23.936V24.936H82.1033V23.936H81.1033ZM80.5273 22.592L79.8688 23.3446L79.8779 23.3525L79.8871 23.3602L80.5273 22.592ZM77.6713 22.568L78.3082 23.339L78.3179 23.3309L78.3275 23.3226L77.6713 22.568ZM76.9513 23.936L75.9679 23.7548L75.7503 24.936H76.9513V23.936ZM84.9033 25.112C84.9033 25.4364 84.8822 25.7612 84.8397 26.0867L86.8229 26.3453C86.8765 25.9348 86.9033 25.5236 86.9033 25.112H84.9033ZM85.8313 25.216H76.9273V27.216H85.8313V25.216ZM75.9294 26.2811C75.986 27.1489 76.2309 27.9634 76.8047 28.5632L78.25 27.1808C78.1197 27.0446 77.9646 26.7551 77.9252 26.1509L75.9294 26.2811ZM76.8361 28.5946C77.4095 29.1431 78.1298 29.4 78.9193 29.4V27.4C78.5888 27.4 78.3811 27.3049 78.2185 27.1494L76.8361 28.5946ZM78.9193 29.4C79.4643 29.4 79.9926 29.2761 80.4595 28.9826C80.9267 28.689 81.2671 28.2665 81.5018 27.7747L79.6968 26.9133C79.5956 27.1255 79.4879 27.231 79.3951 27.2894C79.302 27.3479 79.1584 27.4 78.9193 27.4V29.4ZM80.5993 28.344H85.6153V26.344H80.5993V28.344ZM84.6395 27.1253C84.4661 27.8991 84.1285 28.588 83.6204 29.2031L85.1623 30.4769C85.8701 29.62 86.3485 28.6449 86.5911 27.5627L84.6395 27.1253ZM83.6189 29.2049C83.1307 29.7986 82.5045 30.2765 81.7203 30.6342L82.5503 32.4538C83.5902 31.9795 84.4679 31.3214 85.1637 30.4751L83.6189 29.2049ZM81.7203 30.6342C80.9513 30.985 80.0868 31.168 79.1113 31.168V33.168C80.3439 33.168 81.4953 32.935 82.5503 32.4538L81.7203 30.6342ZM79.1113 31.168C77.9279 31.168 76.9104 30.9197 76.0334 30.4475L75.0852 32.2085C76.2883 32.8563 77.6387 33.168 79.1113 33.168V31.168ZM76.0391 30.4506C75.1821 29.982 74.5071 29.3164 74.0044 28.4333L72.2662 29.4227C72.9476 30.6196 73.8885 31.554 75.0795 32.2054L76.0391 30.4506ZM74.0101 28.4435C73.5302 27.5769 73.2713 26.5258 73.2713 25.256H71.2713C71.2713 26.8022 71.5885 28.1991 72.2605 29.4125L74.0101 28.4435ZM73.2713 25.256C73.2713 23.9857 73.5303 22.9455 74.0069 22.0983L72.2637 21.1177C71.5883 22.3185 71.2713 23.7103 71.2713 25.256H73.2713ZM74.0101 22.0925C74.4961 21.215 75.1606 20.5527 76.0151 20.0854L75.0555 18.3306C73.862 18.9833 72.9265 19.921 72.2605 21.1235L74.0101 22.0925ZM76.0094 20.0885C76.8847 19.6172 77.9097 19.368 79.1113 19.368V17.368C77.6249 17.368 76.266 17.6788 75.0612 18.3275L76.0094 20.0885ZM79.1113 19.368C80.2997 19.368 81.3104 19.6104 82.1702 20.0671L83.1085 18.3009C81.9202 17.6696 80.5789 17.368 79.1113 17.368V19.368ZM82.1702 20.0671C83.0228 20.5201 83.6842 21.1667 84.1677 22.0263L85.9109 21.0457C85.2424 19.8573 84.3038 18.9359 83.1085 18.3009L82.1702 20.0671ZM84.1711 22.0321C84.646 22.8632 84.9033 23.8777 84.9033 25.112H86.9033C86.9033 23.5943 86.5846 22.2248 85.9076 21.0399L84.1711 22.0321ZM82.1033 23.936C82.1033 23.1137 81.8156 22.3639 81.1675 21.8238L79.8871 23.3602C80.007 23.4601 80.1033 23.6063 80.1033 23.936H82.1033ZM81.1858 21.8394C80.5959 21.3232 79.8722 21.088 79.0873 21.088V23.088C79.4545 23.088 79.6907 23.1888 79.8688 23.3446L81.1858 21.8394ZM79.0873 21.088C78.3162 21.088 77.5971 21.3074 77.0151 21.8134L78.3275 23.3226C78.4816 23.1886 78.7065 23.088 79.0873 23.088V21.088ZM77.0344 21.797C76.4373 22.2903 76.1097 22.9851 75.9679 23.7548L77.9348 24.1172C78.017 23.6709 78.1693 23.4537 78.3082 23.339L77.0344 21.797ZM76.9513 24.936H81.1033V22.936H76.9513V24.936ZM100.332 19.976L99.5805 20.6353L99.5856 20.6411L100.332 19.976ZM101.7 32V33H102.7V32H101.7ZM96.9964 32H95.9964V33H96.9964V32ZM96.3964 22.976L95.6504 23.642L95.6565 23.6488L95.6626 23.6554L96.3964 22.976ZM93.1324 22.976L93.8661 23.6554L93.8723 23.6488L93.8783 23.642L93.1324 22.976ZM92.5324 32V33H93.5324V32H92.5324ZM87.8284 32H86.8284V33H87.8284V32ZM87.8284 18.536V17.536H86.8284V18.536H87.8284ZM92.5324 18.536H93.5324V17.536H92.5324V18.536ZM92.5324 20.456H91.5324V23.6884L93.3577 21.0207L92.5324 20.456ZM94.2124 18.992L94.6756 19.8782L94.6835 19.8741L94.6912 19.8699L94.2124 18.992ZM96.6364 19.416C97.9396 19.416 98.8828 19.8397 99.5805 20.6353L101.084 19.3167C99.958 18.0323 98.4371 17.416 96.6364 17.416V19.416ZM99.5856 20.6411C100.292 21.4348 100.7 22.5657 100.7 24.152H102.7C102.7 22.2183 102.196 20.5652 101.079 19.3109L99.5856 20.6411ZM100.7 24.152V32H102.7V24.152H100.7ZM101.7 31H96.9964V33H101.7V31ZM97.9964 32V24.776H95.9964V32H97.9964ZM97.9964 24.776C97.9964 23.835 97.7483 22.9642 97.1301 22.2966L95.6626 23.6554C95.8445 23.8518 95.9964 24.181 95.9964 24.776H97.9964ZM97.1423 22.31C96.5288 21.6229 95.7075 21.304 94.7884 21.304V23.304C95.2132 23.304 95.4639 23.4331 95.6504 23.642L97.1423 22.31ZM94.7884 21.304C93.8534 21.304 93.0093 21.6124 92.3864 22.31L93.8783 23.642C94.0554 23.4436 94.3154 23.304 94.7884 23.304V21.304ZM92.3986 22.2966C91.7805 22.9642 91.5324 23.835 91.5324 24.776H93.5324C93.5324 24.181 93.6843 23.8518 93.8661 23.6554L92.3986 22.2966ZM91.5324 24.776V32H93.5324V24.776H91.5324ZM92.5324 31H87.8284V33H92.5324V31ZM88.8284 32V18.536H86.8284V32H88.8284ZM87.8284 19.536H92.5324V17.536H87.8284V19.536ZM91.5324 18.536V20.456H93.5324V18.536H91.5324ZM93.3577 21.0207C93.674 20.5584 94.1052 20.1764 94.6756 19.8782L93.7491 18.1058C92.9116 18.5436 92.2227 19.1376 91.7071 19.8913L93.3577 21.0207ZM94.6912 19.8699C95.2292 19.5765 95.8684 19.416 96.6364 19.416V17.416C95.5803 17.416 94.6036 17.6395 93.7335 18.1141L94.6912 19.8699ZM115.754 15.08H116.754V14.08H115.754V15.08ZM115.754 18.824V19.824H116.754V18.824H115.754ZM108.986 18.824V17.824H107.986V18.824H108.986ZM108.986 21.8H107.986V22.8H108.986V21.8ZM113.978 21.8H114.978V20.8H113.978V21.8ZM113.978 25.376V26.376H114.978V25.376H113.978ZM108.986 25.376V24.376H107.986V25.376H108.986ZM108.986 32V33H109.986V32H108.986ZM104.282 32H103.282V33H104.282V32ZM104.282 15.08V14.08H103.282V15.08H104.282ZM114.754 15.08V18.824H116.754V15.08H114.754ZM115.754 17.824H108.986V19.824H115.754V17.824ZM107.986 18.824V21.8H109.986V18.824H107.986ZM108.986 22.8H113.978V20.8H108.986V22.8ZM112.978 21.8V25.376H114.978V21.8H112.978ZM113.978 24.376H108.986V26.376H113.978V24.376ZM107.986 25.376V32H109.986V25.376H107.986ZM108.986 31H104.282V33H108.986V31ZM105.282 32V15.08H103.282V32H105.282ZM104.282 16.08H115.754V14.08H104.282V16.08ZM118.095 16.616L117.411 17.3463L117.424 17.3576L117.436 17.3686L118.095 16.616ZM118.095 13.136L117.423 12.395L117.417 12.4003L117.411 12.4057L118.095 13.136ZM122.079 13.136L121.395 13.8663L121.401 13.8717L121.407 13.877L122.079 13.136ZM122.079 16.616L122.749 17.3581L122.75 17.357L122.079 16.616ZM122.439 18.536H123.439V17.536H122.439V18.536ZM122.439 32V33H123.439V32H122.439ZM117.735 32H116.735V33H117.735V32ZM117.735 18.536V17.536H116.735V18.536H117.735ZM120.111 16.288C119.465 16.288 119.044 16.1184 118.753 15.8634L117.436 17.3686C118.169 18.0096 119.093 18.288 120.111 18.288V16.288ZM118.778 15.8857C118.487 15.6136 118.351 15.3033 118.351 14.888H116.351C116.351 15.8487 116.71 16.6904 117.411 17.3463L118.778 15.8857ZM118.351 14.888C118.351 14.4494 118.492 14.1335 118.778 13.8663L117.411 12.4057C116.705 13.0665 116.351 13.9186 116.351 14.888H118.351ZM118.766 13.877C119.058 13.6123 119.473 13.44 120.111 13.44V11.44C119.084 11.44 118.155 11.7317 117.423 12.395L118.766 13.877ZM120.111 13.44C120.727 13.44 121.121 13.6093 121.395 13.8663L122.762 12.4057C122.044 11.7347 121.126 11.44 120.111 11.44V13.44ZM121.407 13.877C121.705 14.1474 121.847 14.4602 121.847 14.888H123.847C123.847 13.9078 123.476 13.0526 122.75 12.395L121.407 13.877ZM121.847 14.888C121.847 15.2923 121.711 15.5996 121.407 15.875L122.75 17.357C123.47 16.7044 123.847 15.8597 123.847 14.888H121.847ZM121.408 15.8739C121.135 16.1211 120.736 16.288 120.111 16.288V18.288C121.117 18.288 122.031 18.0069 122.749 17.3581L121.408 15.8739ZM121.439 18.536V32H123.439V18.536H121.439ZM122.439 31H117.735V33H122.439V31ZM118.735 32V18.536H116.735V32H118.735ZM117.735 19.536H122.439V17.536H117.735V19.536ZM137.621 19.976L136.87 20.6353L136.875 20.6411L137.621 19.976ZM138.989 32V33H139.989V32H138.989ZM134.285 32H133.285V33H134.285V32ZM133.685 22.976L132.939 23.642L132.946 23.6488L132.952 23.6554L133.685 22.976ZM130.421 22.976L131.155 23.6554L131.161 23.6488L131.167 23.642L130.421 22.976ZM129.821 32V33H130.821V32H129.821ZM125.117 32H124.117V33H125.117V32ZM125.117 18.536V17.536H124.117V18.536H125.117ZM129.821 18.536H130.821V17.536H129.821V18.536ZM129.821 20.456H128.821V23.6884L130.647 21.0207L129.821 20.456ZM131.501 18.992L131.965 19.8782L131.973 19.8741L131.98 19.8699L131.501 18.992ZM133.925 19.416C135.229 19.416 136.172 19.8397 136.87 20.6353L138.373 19.3167C137.247 18.0323 135.726 17.416 133.925 17.416V19.416ZM136.875 20.6411C137.582 21.4348 137.989 22.5657 137.989 24.152H139.989C139.989 22.2183 139.485 20.5652 138.368 19.3109L136.875 20.6411ZM137.989 24.152V32H139.989V24.152H137.989ZM138.989 31H134.285V33H138.989V31ZM135.285 32V24.776H133.285V32H135.285ZM135.285 24.776C135.285 23.835 135.037 22.9642 134.419 22.2966L132.952 23.6554C133.134 23.8518 133.285 24.181 133.285 24.776H135.285ZM134.431 22.31C133.818 21.6229 132.997 21.304 132.077 21.304V23.304C132.502 23.304 132.753 23.4331 132.939 23.642L134.431 22.31ZM132.077 21.304C131.142 21.304 130.298 21.6124 129.675 22.31L131.167 23.642C131.345 23.4436 131.604 23.304 132.077 23.304V21.304ZM129.688 22.2966C129.07 22.9642 128.821 23.835 128.821 24.776H130.821C130.821 24.181 130.973 23.8518 131.155 23.6554L129.688 22.2966ZM128.821 24.776V32H130.821V24.776H128.821ZM129.821 31H125.117V33H129.821V31ZM126.117 32V18.536H124.117V32H126.117ZM125.117 19.536H129.821V17.536H125.117V19.536ZM128.821 18.536V20.456H130.821V18.536H128.821ZM130.647 21.0207C130.963 20.5584 131.394 20.1764 131.965 19.8782L131.038 18.1058C130.201 18.5436 129.512 19.1376 128.996 19.8913L130.647 21.0207ZM131.98 19.8699C132.518 19.5765 133.158 19.416 133.925 19.416V17.416C132.869 17.416 131.893 17.6395 131.023 18.1141L131.98 19.8699ZM141.547 21.608L140.649 21.1663L140.644 21.1775L141.547 21.608ZM143.611 19.208L143.074 18.3643L143.067 18.3688L143.611 19.208ZM148.939 18.92L148.458 19.7971H148.458L148.939 18.92ZM150.499 20.408L149.637 20.916L151.499 24.0722V20.408H150.499ZM150.499 18.536V17.536H149.499V18.536H150.499ZM155.203 18.536H156.203V17.536H155.203V18.536ZM155.203 32V33H156.203V32H155.203ZM150.499 32H149.499V33H150.499V32ZM150.499 30.128H151.499V26.4638L149.637 29.62L150.499 30.128ZM148.915 31.616L148.443 30.7342L148.434 30.7389L148.915 31.616ZM143.611 31.328L143.067 32.1672L143.074 32.1717L143.611 31.328ZM141.547 28.928L140.641 29.3531L140.645 29.3614L140.649 29.3697L141.547 28.928ZM149.779 23.216L149.048 23.8992L149.054 23.9053L149.06 23.9114L149.779 23.216ZM146.299 23.216L147.018 23.911L147.023 23.9051L147.029 23.8992L146.299 23.216ZM146.299 27.32L145.558 27.9915L145.563 27.9974L145.568 28.0032L146.299 27.32ZM149.779 27.32L149.06 26.6246L149.054 26.6307L149.048 26.6368L149.779 27.32ZM141.803 25.256C141.803 23.9824 142.029 22.919 142.449 22.0385L140.644 21.1775C140.072 22.377 139.803 23.7456 139.803 25.256H141.803ZM142.444 22.0497C142.886 21.1508 143.46 20.4971 144.154 20.0472L143.067 18.3688C142.033 19.0389 141.231 19.9852 140.649 21.1663L142.444 22.0497ZM144.147 20.0517C144.862 19.5967 145.651 19.368 146.539 19.368V17.368C145.282 17.368 144.119 17.6993 143.074 18.3643L144.147 20.0517ZM146.539 19.368C147.334 19.368 147.962 19.5251 148.458 19.7971L149.419 18.0429C148.572 17.5789 147.599 17.368 146.539 17.368V19.368ZM148.458 19.7971C148.982 20.0838 149.366 20.4561 149.637 20.916L151.36 19.9C150.895 19.1119 150.239 18.4922 149.419 18.0429L148.458 19.7971ZM151.499 20.408V18.536H149.499V20.408H151.499ZM150.499 19.536H155.203V17.536H150.499V19.536ZM154.203 18.536V32H156.203V18.536H154.203ZM155.203 31H150.499V33H155.203V31ZM151.499 32V30.128H149.499V32H151.499ZM149.637 29.62C149.37 30.0739 148.982 30.4458 148.443 30.7342L149.386 32.4978C150.223 32.0502 150.892 31.4301 151.36 30.636L149.637 29.62ZM148.434 30.7389C147.935 31.0122 147.315 31.168 146.539 31.168V33.168C147.587 33.168 148.55 32.9558 149.395 32.4931L148.434 30.7389ZM146.539 31.168C145.651 31.168 144.862 30.9393 144.147 30.4843L143.074 32.1717C144.119 32.8367 145.282 33.168 146.539 33.168V31.168ZM144.154 30.4888C143.46 30.0389 142.886 29.3852 142.444 28.4863L140.649 29.3697C141.231 30.5508 142.033 31.4971 143.067 32.1672L144.154 30.4888ZM142.452 28.5029C142.029 27.6031 141.803 26.5291 141.803 25.256H139.803C139.803 26.7669 140.072 28.1409 140.641 29.3531L142.452 28.5029ZM151.499 25.256C151.499 24.2011 151.2 23.2472 150.497 22.5206L149.06 23.9114C149.317 24.1768 149.499 24.5829 149.499 25.256H151.499ZM150.509 22.5328C149.853 21.8318 149.011 21.472 148.051 21.472V23.472C148.466 23.472 148.776 23.6082 149.048 23.8992L150.509 22.5328ZM148.051 21.472C147.081 21.472 146.229 21.8265 145.568 22.5328L147.029 23.8992C147.296 23.6135 147.612 23.472 148.051 23.472V21.472ZM145.58 22.521C144.884 23.2408 144.603 24.2018 144.603 25.256H146.603C146.603 24.5502 146.785 24.1512 147.018 23.911L145.58 22.521ZM144.603 25.256C144.603 26.3035 144.888 27.2527 145.558 27.9915L147.04 26.6485C146.781 26.3633 146.603 25.9365 146.603 25.256H144.603ZM145.568 28.0032C146.229 28.7095 147.081 29.064 148.051 29.064V27.064C147.612 27.064 147.296 26.9225 147.029 26.6368L145.568 28.0032ZM148.051 29.064C149.011 29.064 149.853 28.7042 150.509 28.0032L149.048 26.6368C148.776 26.9278 148.466 27.064 148.051 27.064V29.064ZM150.497 28.0154C151.204 27.2855 151.499 26.321 151.499 25.256H149.499C149.499 25.951 149.314 26.3625 149.06 26.6246L150.497 28.0154ZM170.387 19.976L169.635 20.6353L169.64 20.6411L170.387 19.976ZM171.755 32V33H172.755V32H171.755ZM167.051 32H166.051V33H167.051V32ZM166.451 22.976L165.705 23.642L165.711 23.6488L165.717 23.6554L166.451 22.976ZM163.187 22.976L163.921 23.6554L163.927 23.6488L163.933 23.642L163.187 22.976ZM162.587 32V33H163.587V32H162.587ZM157.883 32H156.883V33H157.883V32ZM157.883 18.536V17.536H156.883V18.536H157.883ZM162.587 18.536H163.587V17.536H162.587V18.536ZM162.587 20.456H161.587V23.6884L163.412 21.0207L162.587 20.456ZM164.267 18.992L164.73 19.8782L164.738 19.8741L164.746 19.8699L164.267 18.992ZM166.691 19.416C167.994 19.416 168.937 19.8397 169.635 20.6353L171.139 19.3167C170.013 18.0323 168.492 17.416 166.691 17.416V19.416ZM169.64 20.6411C170.347 21.4348 170.755 22.5657 170.755 24.152H172.755C172.755 22.2183 172.251 20.5652 171.134 19.3109L169.64 20.6411ZM170.755 24.152V32H172.755V24.152H170.755ZM171.755 31H167.051V33H171.755V31ZM168.051 32V24.776H166.051V32H168.051ZM168.051 24.776C168.051 23.835 167.803 22.9642 167.185 22.2966L165.717 23.6554C165.899 23.8518 166.051 24.181 166.051 24.776H168.051ZM167.197 22.31C166.584 21.6229 165.762 21.304 164.843 21.304V23.304C165.268 23.304 165.519 23.4331 165.705 23.642L167.197 22.31ZM164.843 21.304C163.908 21.304 163.064 21.6124 162.441 22.31L163.933 23.642C164.11 23.4436 164.37 23.304 164.843 23.304V21.304ZM162.453 22.2966C161.835 22.9642 161.587 23.835 161.587 24.776H163.587C163.587 24.181 163.739 23.8518 163.921 23.6554L162.453 22.2966ZM161.587 24.776V32H163.587V24.776H161.587ZM162.587 31H157.883V33H162.587V31ZM158.883 32V18.536H156.883V32H158.883ZM157.883 19.536H162.587V17.536H157.883V19.536ZM161.587 18.536V20.456H163.587V18.536H161.587ZM163.412 21.0207C163.729 20.5584 164.16 20.1764 164.73 19.8782L163.804 18.1058C162.966 18.5436 162.277 19.1376 161.762 19.8913L163.412 21.0207ZM164.746 19.8699C165.284 19.5765 165.923 19.416 166.691 19.416V17.416C165.635 17.416 164.658 17.6395 163.788 18.1141L164.746 19.8699ZM174.432 21.608L175.307 22.0925L174.432 21.608ZM176.832 19.208L176.358 18.3275L176.352 18.3306L176.832 19.208ZM184.704 19.784L184.076 20.5618L184.082 20.567L184.704 19.784ZM186.96 23.696V24.696H188.18L187.941 23.4999L186.96 23.696ZM181.968 23.696L181.018 24.007L181.243 24.696H181.968V23.696ZM178.872 23.12L178.057 22.5412L178.053 22.5465L178.872 23.12ZM178.872 27.416L178.044 27.9768L178.05 27.9859L178.057 27.9947L178.872 27.416ZM181.968 26.84V25.84H181.231L181.013 26.5447L181.968 26.84ZM186.96 26.84L187.94 27.0379L188.182 25.84H186.96V26.84ZM184.704 30.752L185.333 31.5297L184.704 30.752ZM176.832 31.328L176.352 32.2054L176.358 32.2085L176.832 31.328ZM174.432 28.928L175.307 28.4435L174.432 28.928ZM174.568 25.256C174.568 24.0044 174.826 22.9607 175.307 22.0925L173.557 21.1235C172.886 22.3353 172.568 23.7236 172.568 25.256H174.568ZM175.307 22.0925C175.793 21.215 176.457 20.5527 177.312 20.0854L176.352 18.3306C175.159 18.9833 174.223 19.921 173.557 21.1235L175.307 22.0925ZM177.306 20.0885C178.183 19.6163 179.201 19.368 180.384 19.368V17.368C178.912 17.368 177.561 17.6797 176.358 18.3275L177.306 20.0885ZM180.384 19.368C181.901 19.368 183.11 19.7814 184.076 20.5617L185.333 19.0063C183.962 17.8986 182.291 17.368 180.384 17.368V19.368ZM184.082 20.567C185.038 21.3263 185.683 22.4075 185.98 23.8921L187.941 23.4999C187.566 21.6245 186.707 20.0977 185.326 19.001L184.082 20.567ZM186.96 22.696H181.968V24.696H186.96V22.696ZM182.919 23.385C182.731 22.8129 182.426 22.2936 181.95 21.9197C181.465 21.5388 180.889 21.376 180.288 21.376V23.376C180.519 23.376 180.639 23.4332 180.714 23.4923C180.799 23.5584 180.917 23.6991 181.018 24.007L182.919 23.385ZM180.288 21.376C179.362 21.376 178.59 21.7896 178.057 22.5413L179.688 23.6987C179.858 23.4584 180.031 23.376 180.288 23.376V21.376ZM178.053 22.5465C177.547 23.269 177.368 24.2217 177.368 25.256H179.368C179.368 24.4023 179.525 23.931 179.691 23.6935L178.053 22.5465ZM177.368 25.256C177.368 26.2939 177.549 27.2451 178.044 27.9768L179.7 26.8552C179.524 26.5949 179.368 26.1061 179.368 25.256H177.368ZM178.057 27.9947C178.59 28.7464 179.362 29.16 180.288 29.16V27.16C180.031 27.16 179.858 27.0776 179.688 26.8373L178.057 27.9947ZM180.288 29.16C180.892 29.16 181.474 28.9998 181.962 28.6163C182.443 28.2385 182.745 27.7128 182.924 27.1353L181.013 26.5447C180.919 26.8472 180.806 26.9815 180.726 27.0437C180.654 27.1002 180.532 27.16 180.288 27.16V29.16ZM181.968 27.84H186.96V25.84H181.968V27.84ZM185.98 26.6421C185.684 28.1093 185.039 29.1957 184.076 29.9743L185.333 31.5297C186.706 30.4203 187.565 28.8987 187.94 27.0379L185.98 26.6421ZM184.076 29.9743C183.11 30.7546 181.901 31.168 180.384 31.168V33.168C182.291 33.168 183.962 32.6374 185.333 31.5297L184.076 29.9743ZM180.384 31.168C179.201 31.168 178.183 30.9197 177.306 30.4475L176.358 32.2085C177.561 32.8563 178.912 33.168 180.384 33.168V31.168ZM177.312 30.4506C176.457 29.9833 175.793 29.321 175.307 28.4435L173.557 29.4125C174.223 30.615 175.159 31.5527 176.352 32.2054L177.312 30.4506ZM175.307 28.4435C174.827 27.5769 174.568 26.5258 174.568 25.256H172.568C172.568 26.8022 172.885 28.1991 173.557 29.4125L175.307 28.4435ZM201.706 26.216V27.216H202.584L202.698 26.3453L201.706 26.216ZM192.802 26.216V25.216H191.735L191.804 26.2811L192.802 26.216ZM193.402 27.872L192.68 28.5632L192.695 28.5793L192.711 28.5946L193.402 27.872ZM196.474 27.344V26.344H195.844L195.572 26.9133L196.474 27.344ZM201.49 27.344L202.466 27.5627L202.739 26.344H201.49V27.344ZM200.266 29.84L199.495 29.2031L199.494 29.2049L200.266 29.84ZM198.01 31.544L198.425 32.4538L198.01 31.544ZM191.434 31.328L190.954 32.2054L190.96 32.2085L191.434 31.328ZM189.01 28.928L188.135 29.4125L188.141 29.4227L189.01 28.928ZM189.01 21.608L189.882 22.0983L189.885 22.0925L189.01 21.608ZM191.41 19.208L190.936 18.3275L190.93 18.3306L191.41 19.208ZM198.514 19.184L198.983 18.3009L198.514 19.184ZM200.914 21.536L200.043 22.0263L200.046 22.0321L200.914 21.536ZM196.978 23.936V24.936H197.978V23.936H196.978ZM196.402 22.592L195.744 23.3446L195.753 23.3525L195.762 23.3602L196.402 22.592ZM193.546 22.568L194.183 23.339L194.193 23.3309L194.202 23.3226L193.546 22.568ZM192.826 23.936L191.843 23.7548L191.625 24.936H192.826V23.936ZM200.778 25.112C200.778 25.4364 200.757 25.7612 200.715 26.0867L202.698 26.3453C202.751 25.9348 202.778 25.5236 202.778 25.112H200.778ZM201.706 25.216H192.802V27.216H201.706V25.216ZM191.804 26.2811C191.861 27.1489 192.106 27.9634 192.68 28.5632L194.125 27.1808C193.995 27.0446 193.84 26.7551 193.8 26.1509L191.804 26.2811ZM192.711 28.5946C193.284 29.1431 194.005 29.4 194.794 29.4V27.4C194.464 27.4 194.256 27.3049 194.094 27.1494L192.711 28.5946ZM194.794 29.4C195.339 29.4 195.868 29.2761 196.334 28.9826C196.802 28.689 197.142 28.2665 197.377 27.7747L195.572 26.9133C195.471 27.1255 195.363 27.231 195.27 27.2894C195.177 27.3479 195.033 27.4 194.794 27.4V29.4ZM196.474 28.344H201.49V26.344H196.474V28.344ZM200.515 27.1253C200.341 27.8991 200.004 28.588 199.495 29.2031L201.037 30.4769C201.745 29.62 202.224 28.6449 202.466 27.5627L200.515 27.1253ZM199.494 29.2049C199.006 29.7986 198.379 30.2765 197.595 30.6342L198.425 32.4538C199.465 31.9795 200.343 31.3214 201.039 30.4751L199.494 29.2049ZM197.595 30.6342C196.826 30.985 195.962 31.168 194.986 31.168V33.168C196.219 33.168 197.37 32.935 198.425 32.4538L197.595 30.6342ZM194.986 31.168C193.803 31.168 192.785 30.9197 191.908 30.4475L190.96 32.2085C192.163 32.8563 193.514 33.168 194.986 33.168V31.168ZM191.914 30.4506C191.057 29.982 190.382 29.3164 189.879 28.4333L188.141 29.4227C188.823 30.6196 189.763 31.554 190.954 32.2054L191.914 30.4506ZM189.885 28.4435C189.405 27.5769 189.146 26.5258 189.146 25.256H187.146C187.146 26.8022 187.463 28.1991 188.136 29.4125L189.885 28.4435ZM189.146 25.256C189.146 23.9857 189.405 22.9455 189.882 22.0983L188.139 21.1177C187.463 22.3185 187.146 23.7103 187.146 25.256H189.146ZM189.885 22.0925C190.371 21.215 191.036 20.5527 191.89 20.0854L190.93 18.3306C189.737 18.9833 188.801 19.921 188.136 21.1235L189.885 22.0925ZM191.884 20.0885C192.76 19.6172 193.785 19.368 194.986 19.368V17.368C193.5 17.368 192.141 17.6788 190.936 18.3275L191.884 20.0885ZM194.986 19.368C196.175 19.368 197.185 19.6104 198.045 20.0671L198.983 18.3009C197.795 17.6696 196.454 17.368 194.986 17.368V19.368ZM198.045 20.0671C198.898 20.5201 199.559 21.1667 200.043 22.0263L201.786 21.0457C201.117 19.8573 200.179 18.9359 198.983 18.3009L198.045 20.0671ZM200.046 22.0321C200.521 22.8632 200.778 23.8777 200.778 25.112H202.778C202.778 23.5943 202.46 22.2248 201.783 21.0399L200.046 22.0321ZM197.978 23.936C197.978 23.1137 197.691 22.3639 197.042 21.8238L195.762 23.3602C195.882 23.4601 195.978 23.6063 195.978 23.936H197.978ZM197.061 21.8394C196.471 21.3232 195.747 21.088 194.962 21.088V23.088C195.329 23.088 195.566 23.1888 195.744 23.3446L197.061 21.8394ZM194.962 21.088C194.191 21.088 193.472 21.3074 192.89 21.8134L194.202 23.3226C194.357 23.1886 194.581 23.088 194.962 23.088V21.088ZM192.909 21.797C192.312 22.2903 191.985 22.9851 191.843 23.7548L193.81 24.1172C193.892 23.6709 194.044 23.4537 194.183 23.339L192.909 21.797ZM192.826 24.936H196.978V22.936H192.826V24.936ZM206.175 31.568L205.772 32.4831L205.781 32.4872L205.791 32.4911L206.175 31.568ZM203.919 29.888L203.122 30.4908L203.129 30.5008L203.137 30.5105L203.919 29.888ZM203.007 27.464V26.464H201.933L202.01 27.5352L203.007 27.464ZM207.567 27.464L208.557 27.3175L208.43 26.464H207.567V27.464ZM210.111 27.224L210.51 26.3069V26.3069L210.111 27.224ZM208.287 26.696L208.508 25.7207L208.496 25.7179L208.483 25.7154L208.287 26.696ZM205.887 26.048L205.536 26.9843L205.887 26.048ZM204.207 24.872L203.447 25.5209L203.452 25.5273L203.458 25.5336L204.207 24.872ZM204.159 20.504L204.988 21.0635L204.995 21.054L204.159 20.504ZM206.055 18.944L205.643 18.033L205.636 18.036L206.055 18.944ZM213.255 19.664L212.605 20.4233L213.255 19.664ZM215.007 23.072V24.072H216.127L216.001 22.9591L215.007 23.072ZM210.759 23.072L209.776 23.2541L209.928 24.072H210.759V23.072ZM210.183 22.088L209.543 22.8562L209.566 22.8753L209.59 22.8931L210.183 22.088ZM208.119 21.944L207.55 21.1218L207.535 21.1326L207.519 21.144L208.119 21.944ZM208.383 23.288L207.952 24.1901L207.968 24.1979L207.985 24.2051L208.383 23.288ZM210.159 23.792L209.949 24.7695L209.951 24.77L210.159 23.792ZM212.583 24.488L212.212 25.4165L212.22 25.4196L212.583 24.488ZM214.287 25.736L213.519 26.3762L213.529 26.3878L213.539 26.399L214.287 25.736ZM214.335 30.152L213.533 29.5553L213.528 29.562L213.523 29.5688L214.335 30.152ZM212.391 31.64L212.781 32.561L212.789 32.5573L212.391 31.64ZM209.439 31.168C208.333 31.168 207.379 30.9863 206.56 30.6449L205.791 32.4911C206.891 32.9497 208.113 33.168 209.439 33.168V31.168ZM206.579 30.6529C205.761 30.2926 205.147 29.8252 204.702 29.2655L203.137 30.5105C203.812 31.3588 204.702 32.0114 205.772 32.4831L206.579 30.6529ZM204.717 29.2852C204.289 28.7186 204.055 28.0951 204.005 27.3928L202.01 27.5352C202.088 28.6249 202.462 29.6174 203.122 30.4908L204.717 29.2852ZM203.007 28.464H207.567V26.464H203.007V28.464ZM206.578 27.6105C206.679 28.2938 207.015 28.8781 207.586 29.2857L208.749 27.6583C208.647 27.5859 208.583 27.4982 208.557 27.3175L206.578 27.6105ZM207.586 29.2857C208.124 29.6696 208.754 29.832 209.415 29.832V27.832C209.085 27.832 208.883 27.7544 208.749 27.6583L207.586 29.2857ZM209.415 29.832C209.928 29.832 210.46 29.7263 210.909 29.4057L209.746 27.7783C209.746 27.7785 209.728 27.7915 209.677 27.8049C209.624 27.8189 209.54 27.832 209.415 27.832V29.832ZM210.909 29.4057C211.372 29.0746 211.663 28.5744 211.663 27.968H209.663C209.663 27.9447 209.67 27.8956 209.699 27.8419C209.726 27.7908 209.754 27.7725 209.746 27.7783L210.909 29.4057ZM211.663 27.968C211.663 27.6054 211.56 27.2459 211.328 26.9342C211.105 26.6335 210.808 26.4364 210.51 26.3069L209.713 28.1411C209.783 28.1716 209.761 28.1785 209.722 28.1258C209.703 28.0993 209.686 28.0671 209.675 28.033C209.665 27.9998 209.663 27.9761 209.663 27.968H211.663ZM210.51 26.3069C210.05 26.1069 209.364 25.9144 208.508 25.7207L208.067 27.6713C208.907 27.8616 209.437 28.0211 209.713 28.1411L210.51 26.3069ZM208.483 25.7154C207.556 25.5299 206.812 25.3266 206.238 25.1117L205.536 26.9843C206.243 27.2494 207.099 27.4781 208.091 27.6766L208.483 25.7154ZM206.238 25.1117C205.761 24.9327 205.336 24.6393 204.957 24.2104L203.458 25.5336C204.039 26.1927 204.733 26.6833 205.536 26.9843L206.238 25.1117ZM204.968 24.2231C204.7 23.9083 204.511 23.4263 204.511 22.664H202.511C202.511 23.7577 202.787 24.7477 203.447 25.5209L204.968 24.2231ZM204.511 22.664C204.511 22.0558 204.672 21.532 204.988 21.0635L203.331 19.9445C202.783 20.756 202.511 21.6722 202.511 22.664H204.511ZM204.995 21.054C205.308 20.5782 205.783 20.171 206.474 19.852L205.636 18.036C204.664 18.485 203.875 19.1178 203.324 19.954L204.995 21.054ZM206.468 19.855C207.156 19.5433 208.024 19.368 209.103 19.368V17.368C207.814 17.368 206.651 17.5767 205.643 18.033L206.468 19.855ZM209.103 19.368C210.703 19.368 211.83 19.7591 212.605 20.4233L213.906 18.9047C212.665 17.8409 211.023 17.368 209.103 17.368V19.368ZM212.605 20.4233C213.407 21.1111 213.88 22.0094 214.014 23.1849L216.001 22.9591C215.815 21.3186 215.12 19.9449 213.906 18.9047L212.605 20.4233ZM215.007 22.072H210.759V24.072H215.007V22.072ZM211.743 22.8899C211.625 22.2519 211.318 21.682 210.777 21.2829L209.59 22.8931C209.657 22.942 209.734 23.0281 209.776 23.2541L211.743 22.8899ZM210.824 21.3198C210.305 20.8875 209.661 20.728 209.007 20.728V22.728C209.346 22.728 209.486 22.8085 209.543 22.8562L210.824 21.3198ZM209.007 20.728C208.519 20.728 207.991 20.8163 207.55 21.1218L208.689 22.7662C208.673 22.7767 208.681 22.7664 208.734 22.7537C208.787 22.7406 208.875 22.728 209.007 22.728V20.728ZM207.519 21.144C207.057 21.491 206.831 21.9977 206.831 22.544H208.831C208.831 22.5428 208.831 22.5804 208.805 22.6347C208.778 22.6913 208.741 22.7277 208.719 22.744L207.519 21.144ZM206.831 22.544C206.831 23.3615 207.351 23.9027 207.952 24.1901L208.815 22.3859C208.732 22.3464 208.741 22.3321 208.772 22.3742C208.789 22.3963 208.806 22.4265 208.817 22.4623C208.829 22.4978 208.831 22.5269 208.831 22.544H206.831ZM207.985 24.2051C208.448 24.4067 209.122 24.5912 209.949 24.7695L210.37 22.8145C209.565 22.6408 209.054 22.4893 208.782 22.3709L207.985 24.2051ZM209.951 24.77C210.894 24.9709 211.642 25.1887 212.212 25.4165L212.955 23.5595C212.244 23.2753 211.377 23.0291 210.368 22.814L209.951 24.77ZM212.22 25.4196C212.708 25.6102 213.14 25.9213 213.519 26.3762L215.056 25.0958C214.475 24.3987 213.77 23.8778 212.947 23.5564L212.22 25.4196ZM213.539 26.399C213.829 26.7262 214.031 27.2322 214.031 28.04H216.031C216.031 26.8958 215.738 25.8658 215.036 25.073L213.539 26.399ZM214.031 28.04C214.031 28.6109 213.868 29.1053 213.533 29.5553L215.138 30.7487C215.731 29.9507 216.031 29.0371 216.031 28.04H214.031ZM213.523 29.5688C213.2 30.0187 212.709 30.4119 211.993 30.7227L212.789 32.5573C213.769 32.1321 214.575 31.5333 215.148 30.7352L213.523 29.5688ZM212.002 30.719C211.32 31.0073 210.475 31.168 209.439 31.168V33.168C210.676 33.168 211.798 32.9767 212.781 32.561L212.002 30.719Z" fill="black" fill-opacity="0.1"/>
<path d="M34.1422 5.85781C30.3647 2.08031 25.3422 0 20 0C14.6578 0 9.63531 2.08031 5.85781 5.85781C2.08031 9.63531 0 14.6578 0 20C0 25.3422 2.08039 30.3646 5.85781 34.1422C9.63523 37.9198 14.6578 40 20 40C25.3422 40 30.3647 37.9197 34.1422 34.1422C37.9197 30.3647 40 25.3422 40 20C40 14.6578 37.9196 9.63539 34.1422 5.85781Z" fill="#33CC95"/>
<g clip-path="url(#clip0_35212_417)">
<path d="M20.5714 8V33.1429" stroke="white" stroke-width="2" stroke-linecap="round" stroke-linejoin="round"/>
<path d="M26.2857 12.5714H17.7143C16.6534 12.5714 15.636 12.9929 14.8859 13.743C14.1357 14.4931 13.7143 15.5106 13.7143 16.5714C13.7143 17.6323 14.1357 18.6497 14.8859 19.3999C15.636 20.15 16.6534 20.5714 17.7143 20.5714H23.4286C24.4894 20.5714 25.5069 20.9929 26.257 21.743C27.0072 22.4932 27.4286 23.5106 27.4286 24.5714C27.4286 25.6323 27.0072 26.6497 26.257 27.3999C25.5069 28.15 24.4894 28.5714 23.4286 28.5714H13.7143" stroke="white" stroke-width="2" stroke-linecap="round" stroke-linejoin="round"/>
</g>
<defs>
<clipPath id="clip0_35212_417">
<rect width="27.4286" height="27.4286" fill="white" transform="translate(6.85715 6.85714)"/>
</clipPath>
</defs>
</svg>
